<?xml version="1.0" encoding="iso-8859-1"?>
<!-- Generator: Adobe Illustrator 19.0.0, SVG Export Plug-In . SVG Version: 6.00 Build 0)  -->
<svg version="1.1" id="Layer_1" xmlns="http://www.w3.org/2000/svg" xmlns:xlink="http://www.w3.org/1999/xlink" x="0px" y="0px"
	 viewBox="0 0 512.001 512.001" style="enable-background:new 0 0 512.001 512.001;" xml:space="preserve">
<g>
	<g>
		<g>
			<path d="M107.525,341.635h296.952c59.288,0,107.525-48.235,107.525-107.525c0-53.636-40.125-107.525-115.323-107.525
				C387.87,56.796,328.141,2.651,256,2.651S124.129,56.796,115.323,126.587C39.793,126.587,0,180.672,0,234.11
				C0,293.4,48.235,341.635,107.525,341.635z"/>
			<path d="M273.86,396.35v-24.948c0-3.287-2.666-5.953-5.953-5.953h-23.814c-3.288,0-5.953,2.666-5.953,5.953v24.948
				c-23.22,7.547-40.055,29.382-40.055,55.085c0,31.935,25.981,57.916,57.916,57.916s57.916-25.981,57.916-57.916
				C313.916,425.732,297.079,403.897,273.86,396.35z"/>
			<path d="M167.46,365.449h-23.814c-3.287,0-5.953,2.666-5.953,5.953v62.166h-8.847c-7.549-23.216-29.382-40.05-55.083-40.05
				c-31.935,0-57.916,25.981-57.916,57.916s25.981,57.916,57.916,57.916c25.705,0,47.541-16.839,55.086-40.061h26.704
				c9.859,0,17.86-7.99,17.86-17.86v-80.027C173.413,368.115,170.747,365.449,167.46,365.449z"/>
			<path d="M438.237,393.518c-25.701,0-47.534,16.834-55.083,40.05h-8.847v-62.166c0-3.287-2.666-5.953-5.953-5.953H344.54
				c-3.288,0-5.953,2.666-5.953,5.953v80.027c0,9.871,8.001,17.86,17.86,17.86h26.704c7.545,23.222,29.382,40.061,55.086,40.061
				c31.935,0,57.915-25.981,57.915-57.916C496.153,419.499,470.173,393.518,438.237,393.518z"/>
		</g>
	</g>
</g>
<g>
</g>
<g>
</g>
<g>
</g>
<g>
</g>
<g>
</g>
<g>
</g>
<g>
</g>
<g>
</g>
<g>
</g>
<g>
</g>
<g>
</g>
<g>
</g>
<g>
</g>
<g>
</g>
<g>
</g>
</svg>
